<svg width="753" height="511" viewBox="0 0 753 511" fill="none" xmlns="http://www.w3.org/2000/svg">
<path d="M0 546V28.9687C98.0741 6.23399 216.29 -22.8899 286.737 28.9687C384.619 101.023 335.775 182.853 430 206.5C559.5 239 615 188.103 708 256.5C774.461 305.379 751.773 486.046 730.661 546H0Z" fill="url(#paint0_linear_2_33)" fill-opacity="0.78"/>
<path d="M1.5 511V41.0001C86.6667 20.3334 189.324 -6.14127 250.5 41.0001C335.5 106.5 287.469 174.357 358.5 222C440.5 277 506.5 200 611.5 296.5C665.337 345.979 654.333 456.5 636 511H1.5Z" fill="url(#paint1_linear_2_33)"/>
<defs>
<linearGradient id="paint0_linear_2_33" x1="954.063" y1="509.698" x2="20.5044" y2="448.243" gradientUnits="userSpaceOnUse">
<stop stop-color="#FB9376"/>
<stop offset="1" stop-color="#E7495C"/>
</linearGradient>
<linearGradient id="paint1_linear_2_33" x1="830" y1="478" x2="19" y2="427" gradientUnits="userSpaceOnUse">
<stop stop-color="#FB9376"/>
<stop offset="1" stop-color="#E7495C"/>
</linearGradient>
</defs>
</svg>
