<svg width="605" height="512" viewBox="0 0 605 512" fill="none" xmlns="http://www.w3.org/2000/svg">
<path d="M752.17 -34V483.031C654.096 505.766 535.881 534.89 465.433 483.031C367.551 410.977 416.395 329.147 322.17 305.5C192.67 273 137.17 323.897 44.1704 255.5C-22.2903 206.621 0.397217 25.9536 21.509 -34H752.17Z" fill="url(#paint0_linear_2_34)" fill-opacity="0.78"/>
<path d="M750.67 0.999847V471C665.504 491.667 562.846 518.141 501.67 471C416.67 405.5 464.702 337.643 393.67 290C311.67 235 245.67 312 140.67 215.5C86.8335 166.021 97.8371 55.4998 116.17 0.999847H750.67Z" fill="url(#paint1_linear_2_34)"/>
<defs>
<linearGradient id="paint0_linear_2_34" x1="-201.892" y1="2.30247" x2="731.666" y2="63.7573" gradientUnits="userSpaceOnUse">
<stop stop-color="#3EBFD2"/>
<stop offset="1" stop-color="#1B91E1"/>
</linearGradient>
<linearGradient id="paint1_linear_2_34" x1="-77.8296" y1="34.0001" x2="733.17" y2="85.0001" gradientUnits="userSpaceOnUse">
<stop stop-color="#3EBFD2"/>
<stop offset="1" stop-color="#1B91E1"/>
</linearGradient>
</defs>
</svg>
